<?xml version="1.0" standalone="no"?>
<!DOCTYPE svg PUBLIC "-//W3C//DTD SVG 20010904//EN"
 "http://www.w3.org/TR/2001/REC-SVG-20010904/DTD/svg10.dtd">
<svg version="1.0" xmlns="http://www.w3.org/2000/svg"
 width="1280.000000pt" height="1280.000000pt" viewBox="0 0 1280.000000 1280.000000"
 preserveAspectRatio="xMidYMid meet">
<metadata>
Created by potrace 1.11, written by Peter Selinger 2001-2013
</metadata>
<g transform="translate(0.000000,1280.000000) scale(0.100000,-0.100000)"
fill="#000000" stroke="none">
<path d="M12648 7183 c7 -3 16 -2 19 1 4 3 -2 6 -13 5 -11 0 -14 -3 -6 -6z"/>
<path d="M12475 7174 c-16 -2 -86 -9 -155 -15 -268 -23 -646 -79 -911 -134
-1115 -233 -2052 -678 -2727 -1296 -63 -58 -63 -58 -47 -83 l17 -26 205 0 204
0 124 114 c407 375 875 676 1437 925 543 240 1220 423 1849 500 97 12 132 19
94 18 -33 0 -73 -2 -90 -3z"/>
<path d="M3896 6527 c-42 -52 -76 -97 -76 -101 0 -4 55 -87 122 -184 67 -97
122 -186 122 -197 1 -19 -6 -20 -285 -23 l-286 -2 -71 -89 c-40 -48 -72 -91
-72 -95 0 -3 190 -6 423 -6 393 0 424 -1 452 -19 17 -10 59 -59 95 -109 l65
-91 173 -1 c94 0 172 3 172 7 0 9 -744 1002 -752 1003 -3 0 -40 -42 -82 -93z"/>
<path d="M8668 6595 c-9 -21 -9 -29 3 -40 8 -7 119 -90 247 -183 l233 -169
137 73 c75 41 145 77 155 80 9 3 17 8 17 12 0 4 -76 62 -168 129 l-167 123
-223 0 -222 0 -12 -25z"/>
<path d="M191 6594 c-120 -32 -146 -82 -146 -279 0 -119 2 -134 25 -180 20
-40 35 -55 75 -75 l50 -25 488 -5 c419 -4 489 -7 497 -20 14 -22 12 -174 -2
-188 -9 -9 -152 -12 -583 -12 -313 0 -576 -4 -584 -9 -21 -14 -5 -76 30 -116
59 -67 73 -68 637 -73 529 -4 610 1 689 39 25 12 52 36 65 57 21 33 23 52 26
187 4 170 -4 214 -51 263 -60 62 -80 64 -607 71 l-475 6 0 95 0 95 542 3 543
2 6 24 c13 53 -53 116 -148 142 -78 20 -998 19 -1077 -2z"/>
<path d="M1871 6593 c-21 -18 -21 -19 -19 -498 l3 -480 153 -3 152 -3 0 184
c0 129 4 187 12 195 9 9 123 12 453 12 466 0 525 5 585 49 56 41 65 72 68 246
3 151 2 163 -20 205 -28 54 -71 85 -139 99 -32 7 -256 11 -638 11 -546 0 -590
-1 -610 -17z m1080 -182 c22 -18 24 -27 24 -105 0 -131 34 -120 -411 -124
-274 -2 -380 0 -390 9 -18 15 -20 209 -2 227 9 9 108 12 384 12 351 0 373 -1
395 -19z"/>
<path d="M5217 6596 c-63 -17 -97 -43 -122 -92 -19 -37 -20 -59 -20 -384 0
-190 3 -357 8 -372 14 -50 65 -97 126 -116 50 -15 109 -17 576 -17 549 0 586
3 647 46 34 25 55 62 60 109 l3 35 -544 3 c-382 1 -548 6 -558 13 -10 9 -13
71 -13 300 0 275 1 289 19 299 13 6 208 10 565 10 l545 0 -14 46 c-17 58 -38
81 -95 108 -44 20 -59 21 -590 23 -426 2 -556 -1 -593 -11z"/>
<path d="M6920 6515 l0 -95 680 0 680 0 0 95 0 95 -680 0 -680 0 0 -95z"/>
<path d="M6920 5945 l0 -335 673 2 672 3 0 85 0 85 -504 3 c-352 1 -508 6
-518 13 -18 15 -19 269 -1 287 9 9 89 12 300 12 l288 0 0 90 0 90 -455 0 -455
0 0 -335z"/>
<path d="M9687 6067 c-51 -40 -110 -86 -130 -103 l-37 -30 222 -162 222 -162
223 0 223 0 12 25 c13 30 20 22 -97 107 -49 35 -192 140 -317 231 l-227 166
-94 -72z"/>
</g>
</svg>
